<?xml version="1.0" encoding="UTF-8" standalone="no"?>
<!DOCTYPE svg PUBLIC "-//W3C//DTD SVG 1.1//EN"
 "http://www.w3.org/Graphics/SVG/1.1/DTD/svg11.dtd">
<!-- Generated by graphviz version 2.44.1 (20200629.0846)
 -->
<!-- Title: gane_sarson Pages: 1 -->
<svg width="1289pt" height="360pt"
 viewBox="0.00 0.00 1288.78 360.00" xmlns="http://www.w3.org/2000/svg" xmlns:xlink="http://www.w3.org/1999/xlink">
<g id="graph0" class="graph" transform="scale(1 1) rotate(0) translate(4 356)">
<title>gane_sarson</title>
<polygon fill="white" stroke="transparent" points="-4,4 -4,-356 1284.78,-356 1284.78,4 -4,4"/>
<!-- node1 -->
<g id="node1" class="node">
<title>node1</title>
<polygon fill="white" stroke="black" points="0,-315.5 0,-351.5 124.86,-351.5 124.86,-315.5 0,-315.5"/>
<text text-anchor="middle" x="62.43" y="-329.4" font-family="Calibri" font-size="14.00">This is an example.</text>
</g>
<!-- node2 -->
<g id="node2" class="node">
<title>node2</title>
<g id="a_node2"><a xlink:href="https://github.com/SzymonTurno/pygs" xlink:title="{REPO}">
<polygon fill="lightgreen" stroke="black" points="35.43,-242.5 35.43,-278.5 89.43,-278.5 89.43,-242.5 35.43,-242.5"/>
<text text-anchor="middle" x="62.32" y="-256.4" font-family="Calibri" font-size="14.00">REPO</text>
</a>
</g>
</g>
<!-- node1&#45;&gt;node2 -->
<!-- node3 -->
<g id="node3" class="node">
<title>node3</title>
<polygon fill="lightgrey" stroke="black" points="197.06,-315.5 197.06,-351.5 367.8,-351.5 367.8,-315.5 197.06,-315.5"/>
<text text-anchor="middle" x="282.43" y="-329.4" font-family="Calibri" font-size="14.00">Customer Service Assistant</text>
</g>
<!-- flow1 -->
<g id="node15" class="node">
<title>flow1</title>
<polygon fill="none" stroke="white" points="329.92,-268.8 234.95,-268.8 234.95,-252.2 329.92,-252.2 329.92,-268.8"/>
<text text-anchor="middle" x="282.43" y="-256.3" font-family="Calibri" font-size="14.00">Customer details</text>
</g>
<!-- node3&#45;&gt;flow1 -->
<g id="edge2" class="edge">
<title>node3&#45;&gt;flow1</title>
<path fill="none" stroke="black" d="M282.43,-315.46C282.43,-300.59 282.43,-280.19 282.43,-268.89"/>
</g>
<!-- node4 -->
<g id="node4" class="node">
<title>node4</title>
<polygon fill="lightsteelblue" stroke="black" points="812.21,-315.5 812.21,-351.5 882.65,-351.5 882.65,-315.5 812.21,-315.5"/>
<text text-anchor="middle" x="847.43" y="-329.4" font-family="Calibri" font-size="14.00">Customer</text>
</g>
<!-- flow5 -->
<g id="node19" class="node">
<title>flow5</title>
<polygon fill="none" stroke="white" points="1135.62,-268.8 1063.24,-268.8 1063.24,-252.2 1135.62,-252.2 1135.62,-268.8"/>
<text text-anchor="middle" x="1099.43" y="-256.3" font-family="Calibri" font-size="14.00">Order details</text>
</g>
<!-- node4&#45;&gt;flow5 -->
<g id="edge10" class="edge">
<title>node4&#45;&gt;flow5</title>
<path fill="none" stroke="black" d="M882.74,-333C952.09,-333 1099.43,-333 1099.43,-333 1099.43,-333 1099.43,-287.86 1099.43,-268.82"/>
</g>
<!-- flow9 -->
<g id="node21" class="node">
<title>flow9</title>
<polygon fill="none" stroke="white" points="990.9,-268.8 881.96,-268.8 881.96,-252.2 990.9,-252.2 990.9,-268.8"/>
<text text-anchor="middle" x="936.43" y="-256.3" font-family="Calibri" font-size="14.00">Transaction history</text>
</g>
<!-- node4&#45;&gt;flow9 -->
<g id="edge16" class="edge">
<title>node4&#45;&gt;flow9</title>
<path fill="none" stroke="black" d="M857.49,-305.34C857.49,-305.34 857.49,-263 857.49,-263 857.49,-263 868.36,-263 882.04,-263"/>
<polygon fill="black" stroke="black" points="853.99,-305.34 857.49,-315.34 860.99,-305.34 853.99,-305.34"/>
</g>
<!-- flow10 -->
<g id="node22" class="node">
<title>flow10</title>
<polygon fill="none" stroke="white" points="625.97,-268.8 536.89,-268.8 536.89,-252.2 625.97,-252.2 625.97,-268.8"/>
<text text-anchor="middle" x="581.43" y="-256.3" font-family="Calibri" font-size="14.00">Deposit amount</text>
</g>
<!-- node4&#45;&gt;flow10 -->
<g id="edge18" class="edge">
<title>node4&#45;&gt;flow10</title>
<path fill="none" stroke="black" d="M812.11,-333C739.75,-333 581.43,-333 581.43,-333 581.43,-333 581.43,-287.86 581.43,-268.82"/>
</g>
<!-- flow13 -->
<g id="node25" class="node">
<title>flow13</title>
<polygon fill="none" stroke="white" points="810.41,-268.8 708.46,-268.8 708.46,-252.2 810.41,-252.2 810.41,-268.8"/>
<text text-anchor="middle" x="759.43" y="-256.3" font-family="Calibri" font-size="14.00">Withdraw amount</text>
</g>
<!-- node4&#45;&gt;flow13 -->
<g id="edge24" class="edge">
<title>node4&#45;&gt;flow13</title>
<path fill="none" stroke="black" d="M822.5,-305.37C822.5,-305.37 822.5,-257 822.5,-257 822.5,-257 817.51,-257 810.34,-257"/>
<polygon fill="black" stroke="black" points="819,-305.37 822.5,-315.37 826,-305.37 819,-305.37"/>
</g>
<!-- node5 -->
<g id="node5" class="node">
<title>node5</title>
<polygon fill="lightgrey" stroke="black" points="1217,-315.5 1217,-351.5 1271.87,-351.5 1271.87,-315.5 1217,-315.5"/>
<text text-anchor="middle" x="1244.43" y="-329.4" font-family="Calibri" font-size="14.00">Broker</text>
</g>
<!-- flow4 -->
<g id="node18" class="node">
<title>flow4</title>
<polygon fill="none" stroke="white" points="1280.62,-268.8 1208.24,-268.8 1208.24,-252.2 1280.62,-252.2 1280.62,-268.8"/>
<text text-anchor="middle" x="1244.43" y="-256.3" font-family="Calibri" font-size="14.00">Order details</text>
</g>
<!-- node5&#45;&gt;flow4 -->
<g id="edge8" class="edge">
<title>node5&#45;&gt;flow4</title>
<path fill="none" stroke="black" d="M1244.43,-315.46C1244.43,-300.59 1244.43,-280.19 1244.43,-268.89"/>
</g>
<!-- node6 -->
<g id="node6" class="node">
<title>node6</title>
<polygon fill="lightblue" stroke="black" points="1069.73,-0.5 1069.73,-50.1 1217.13,-50.1 1217.13,-0.5 1069.73,-0.5"/>
<text text-anchor="middle" x="1143.43" y="-33.5" font-family="Calibri" font-size="14.00">Third Party</text>
<polyline fill="none" stroke="black" points="1069.73,-25.3 1217.13,-25.3 "/>
<text text-anchor="middle" x="1143.43" y="-8.7" font-family="Calibri" font-size="14.00">Stock Exchange Center</text>
</g>
<!-- node7 -->
<g id="node7" class="node">
<title>node7</title>
<path fill="none" stroke="black" d="M245.81,-139.9C245.81,-139.9 319.06,-139.9 319.06,-139.9 325.06,-139.9 331.06,-145.9 331.06,-151.9 331.06,-151.9 331.06,-193.5 331.06,-193.5 331.06,-199.5 325.06,-205.5 319.06,-205.5 319.06,-205.5 245.81,-205.5 245.81,-205.5 239.81,-205.5 233.81,-199.5 233.81,-193.5 233.81,-193.5 233.81,-151.9 233.81,-151.9 233.81,-145.9 239.81,-139.9 245.81,-139.9"/>
<text text-anchor="middle" x="282.43" y="-188.9" font-family="Calibri" font-size="14.00">1</text>
<polyline fill="none" stroke="black" points="233.81,-180.7 331.06,-180.7 "/>
<text text-anchor="middle" x="282.43" y="-164.1" font-family="Calibri" font-size="14.00">Open Account</text>
</g>
<!-- flow2 -->
<g id="node16" class="node">
<title>flow2</title>
<polygon fill="none" stroke="white" points="247.92,-103.3 152.95,-103.3 152.95,-86.7 247.92,-86.7 247.92,-103.3"/>
<text text-anchor="middle" x="200.43" y="-90.8" font-family="Calibri" font-size="14.00">Customer details</text>
</g>
<!-- node7&#45;&gt;flow2 -->
<g id="edge4" class="edge">
<title>node7&#45;&gt;flow2</title>
<path fill="none" stroke="black" d="M240.74,-139.75C240.74,-126.51 240.74,-112.34 240.74,-103.57"/>
</g>
<!-- flow3 -->
<g id="node17" class="node">
<title>flow3</title>
<polygon fill="none" stroke="white" points="407.4,-103.3 319.46,-103.3 319.46,-86.7 407.4,-86.7 407.4,-103.3"/>
<text text-anchor="middle" x="363.43" y="-90.8" font-family="Calibri" font-size="14.00">Account details</text>
</g>
<!-- node7&#45;&gt;flow3 -->
<g id="edge6" class="edge">
<title>node7&#45;&gt;flow3</title>
<path fill="none" stroke="black" d="M325.38,-139.75C325.38,-126.51 325.38,-112.34 325.38,-103.57"/>
</g>
<!-- node8 -->
<g id="node8" class="node">
<title>node8</title>
<path fill="none" stroke="black" d="M537.91,-139.9C537.91,-139.9 604.95,-139.9 604.95,-139.9 610.95,-139.9 616.95,-145.9 616.95,-151.9 616.95,-151.9 616.95,-193.5 616.95,-193.5 616.95,-199.5 610.95,-205.5 604.95,-205.5 604.95,-205.5 537.91,-205.5 537.91,-205.5 531.91,-205.5 525.91,-199.5 525.91,-193.5 525.91,-193.5 525.91,-151.9 525.91,-151.9 525.91,-145.9 531.91,-139.9 537.91,-139.9"/>
<text text-anchor="middle" x="571.43" y="-188.9" font-family="Calibri" font-size="14.00">2</text>
<polyline fill="none" stroke="black" points="525.91,-180.7 616.95,-180.7 "/>
<text text-anchor="middle" x="571.43" y="-164.1" font-family="Calibri" font-size="14.00">Deposit Cash</text>
</g>
<!-- flow11 -->
<g id="node23" class="node">
<title>flow11</title>
<polygon fill="none" stroke="white" points="619.64,-103.3 479.22,-103.3 479.22,-86.7 619.64,-86.7 619.64,-103.3"/>
<text text-anchor="middle" x="549.43" y="-90.8" font-family="Calibri" font-size="14.00">Updated account balance</text>
</g>
<!-- node8&#45;&gt;flow11 -->
<g id="edge20" class="edge">
<title>node8&#45;&gt;flow11</title>
<path fill="none" stroke="black" d="M571.43,-139.75C571.43,-126.51 571.43,-112.34 571.43,-103.57"/>
</g>
<!-- node9 -->
<g id="node9" class="node">
<title>node9</title>
<path fill="none" stroke="black" d="M719.69,-139.9C719.69,-139.9 799.17,-139.9 799.17,-139.9 805.17,-139.9 811.17,-145.9 811.17,-151.9 811.17,-151.9 811.17,-193.5 811.17,-193.5 811.17,-199.5 805.17,-205.5 799.17,-205.5 799.17,-205.5 719.69,-205.5 719.69,-205.5 713.69,-205.5 707.69,-199.5 707.69,-193.5 707.69,-193.5 707.69,-151.9 707.69,-151.9 707.69,-145.9 713.69,-139.9 719.69,-139.9"/>
<text text-anchor="middle" x="759.43" y="-188.9" font-family="Calibri" font-size="14.00">3</text>
<polyline fill="none" stroke="black" points="707.69,-180.7 811.17,-180.7 "/>
<text text-anchor="middle" x="759.43" y="-164.1" font-family="Calibri" font-size="14.00">Withdraw Cash</text>
</g>
<!-- flow12 -->
<g id="node24" class="node">
<title>flow12</title>
<polygon fill="none" stroke="white" points="832.64,-103.3 692.22,-103.3 692.22,-86.7 832.64,-86.7 832.64,-103.3"/>
<text text-anchor="middle" x="762.43" y="-90.8" font-family="Calibri" font-size="14.00">Updated account balance</text>
</g>
<!-- node9&#45;&gt;flow12 -->
<g id="edge22" class="edge">
<title>node9&#45;&gt;flow12</title>
<path fill="none" stroke="black" d="M759.43,-139.75C759.43,-126.51 759.43,-112.34 759.43,-103.57"/>
</g>
<!-- node11 -->
<g id="node10" class="node">
<title>node11</title>
<path fill="none" stroke="black" d="M1101.2,-139.9C1101.2,-139.9 1159.66,-139.9 1159.66,-139.9 1165.66,-139.9 1171.66,-145.9 1171.66,-151.9 1171.66,-151.9 1171.66,-193.5 1171.66,-193.5 1171.66,-199.5 1165.66,-205.5 1159.66,-205.5 1159.66,-205.5 1101.2,-205.5 1101.2,-205.5 1095.2,-205.5 1089.2,-199.5 1089.2,-193.5 1089.2,-193.5 1089.2,-151.9 1089.2,-151.9 1089.2,-145.9 1095.2,-139.9 1101.2,-139.9"/>
<text text-anchor="middle" x="1130.43" y="-188.9" font-family="Calibri" font-size="14.00">4.0</text>
<polyline fill="none" stroke="black" points="1089.2,-180.7 1171.66,-180.7 "/>
<text text-anchor="middle" x="1130.43" y="-164.1" font-family="Calibri" font-size="14.00">Place Order</text>
</g>
<!-- flow6 -->
<g id="node20" class="node">
<title>flow6</title>
<polygon fill="none" stroke="white" points="1183.56,-103.3 1077.3,-103.3 1077.3,-86.7 1183.56,-86.7 1183.56,-103.3"/>
<text text-anchor="middle" x="1130.43" y="-90.8" font-family="Calibri" font-size="14.00">Transaction details</text>
</g>
<!-- node11&#45;&gt;flow6 -->
<g id="edge12" class="edge">
<title>node11&#45;&gt;flow6</title>
<path fill="none" stroke="black" d="M1130.43,-139.75C1130.43,-126.51 1130.43,-112.34 1130.43,-103.57"/>
</g>
<!-- node12 -->
<g id="node11" class="node">
<title>node12</title>
<path fill="none" stroke="black" d="M894.76,-139.9C894.76,-139.9 992.11,-139.9 992.11,-139.9 998.11,-139.9 1004.11,-145.9 1004.11,-151.9 1004.11,-151.9 1004.11,-193.5 1004.11,-193.5 1004.11,-199.5 998.11,-205.5 992.11,-205.5 992.11,-205.5 894.76,-205.5 894.76,-205.5 888.76,-205.5 882.76,-199.5 882.76,-193.5 882.76,-193.5 882.76,-151.9 882.76,-151.9 882.76,-145.9 888.76,-139.9 894.76,-139.9"/>
<text text-anchor="middle" x="943.43" y="-188.9" font-family="Calibri" font-size="14.00">4.1</text>
<polyline fill="none" stroke="black" points="882.76,-180.7 1004.11,-180.7 "/>
<text text-anchor="middle" x="943.43" y="-164.1" font-family="Calibri" font-size="14.00">Check Transaction</text>
</g>
<!-- node15 -->
<g id="node14" class="node">
<title>node15</title>
<polygon fill="none" stroke="black" points="889.34,-7.3 889.34,-43.3 997.53,-43.3 997.53,-7.3 889.34,-7.3"/>
<text text-anchor="middle" x="902.39" y="-21.2" font-family="Calibri" font-size="14.00">D</text>
<polyline fill="none" stroke="black" points="915.44,-7.5 915.44,-43.3 "/>
<text text-anchor="middle" x="956.48" y="-21.7" font-family="Calibri" font-size="14.00">Transaction</text>
</g>
<!-- node12&#45;&gt;node15 -->
<g id="edge15" class="edge">
<title>node12&#45;&gt;node15</title>
<path fill="none" stroke="black" d="M925.4,-129.62C925.4,-129.62 925.4,-43.47 925.4,-43.47"/>
<polygon fill="black" stroke="black" points="921.9,-129.62 925.4,-139.62 928.9,-129.62 921.9,-129.62"/>
</g>
<!-- node13 -->
<g id="node12" class="node">
<title>node13</title>
<polygon fill="none" stroke="black" points="152.16,-7.3 152.16,-43.3 248.7,-43.3 248.7,-7.3 152.16,-7.3"/>
<text text-anchor="middle" x="165.21" y="-21.2" font-family="Calibri" font-size="14.00">D</text>
<polyline fill="none" stroke="black" points="178.27,-7.5 178.27,-43.3 "/>
<text text-anchor="middle" x="213.48" y="-21.7" font-family="Calibri" font-size="14.00">Customer</text>
</g>
<!-- node14 -->
<g id="node13" class="node">
<title>node14</title>
<polygon fill="none" stroke="black" points="504.66,-7.3 504.66,-43.3 594.2,-43.3 594.2,-7.3 504.66,-7.3"/>
<text text-anchor="middle" x="517.72" y="-21.2" font-family="Calibri" font-size="14.00">D</text>
<polyline fill="none" stroke="black" points="530.77,-7.5 530.77,-43.3 "/>
<text text-anchor="middle" x="562.48" y="-21.7" font-family="Calibri" font-size="14.00">Account</text>
</g>
<!-- flow1&#45;&gt;node7 -->
<g id="edge3" class="edge">
<title>flow1&#45;&gt;node7</title>
<path fill="none" stroke="black" d="M282.43,-252.08C282.43,-252.08 282.43,-215.76 282.43,-215.76"/>
<polygon fill="black" stroke="black" points="285.93,-215.76 282.43,-205.76 278.93,-215.76 285.93,-215.76"/>
</g>
<!-- flow2&#45;&gt;node13 -->
<g id="edge5" class="edge">
<title>flow2&#45;&gt;node13</title>
<path fill="none" stroke="black" d="M200.43,-86.45C200.43,-86.45 200.43,-53.31 200.43,-53.31"/>
<polygon fill="black" stroke="black" points="203.93,-53.31 200.43,-43.31 196.93,-53.31 203.93,-53.31"/>
</g>
<!-- flow3&#45;&gt;node14 -->
<g id="edge7" class="edge">
<title>flow3&#45;&gt;node14</title>
<path fill="none" stroke="black" d="M363.43,-86.7C363.43,-68.15 363.43,-25 363.43,-25 363.43,-25 494.41,-25 494.41,-25"/>
<polygon fill="black" stroke="black" points="494.41,-28.5 504.41,-25 494.41,-21.5 494.41,-28.5"/>
</g>
<!-- flow4&#45;&gt;node11 -->
<g id="edge9" class="edge">
<title>flow4&#45;&gt;node11</title>
<path fill="none" stroke="black" d="M1208.06,-260C1182.82,-260 1153.72,-260 1153.72,-260 1153.72,-260 1153.72,-215.7 1153.72,-215.7"/>
<polygon fill="black" stroke="black" points="1157.22,-215.7 1153.72,-205.7 1150.22,-215.7 1157.22,-215.7"/>
</g>
<!-- flow5&#45;&gt;node11 -->
<g id="edge11" class="edge">
<title>flow5&#45;&gt;node11</title>
<path fill="none" stroke="black" d="M1112.49,-252.08C1112.49,-252.08 1112.49,-215.76 1112.49,-215.76"/>
<polygon fill="black" stroke="black" points="1115.99,-215.76 1112.49,-205.76 1108.99,-215.76 1115.99,-215.76"/>
</g>
<!-- flow6&#45;&gt;node6 -->
<g id="edge13" class="edge">
<title>flow6&#45;&gt;node6</title>
<path fill="none" stroke="black" d="M1130.43,-86.45C1130.43,-86.45 1130.43,-60.12 1130.43,-60.12"/>
<polygon fill="black" stroke="black" points="1133.93,-60.12 1130.43,-50.12 1126.93,-60.12 1133.93,-60.12"/>
</g>
<!-- flow6&#45;&gt;node15 -->
<g id="edge14" class="edge">
<title>flow6&#45;&gt;node15</title>
<path fill="none" stroke="black" d="M1076.97,-95C1027.47,-95 961.46,-95 961.46,-95 961.46,-95 961.46,-53.61 961.46,-53.61"/>
<polygon fill="black" stroke="black" points="964.96,-53.61 961.46,-43.61 957.96,-53.61 964.96,-53.61"/>
</g>
<!-- flow9&#45;&gt;node12 -->
<g id="edge17" class="edge">
<title>flow9&#45;&gt;node12</title>
<path fill="none" stroke="black" d="M936.71,-252.08C936.71,-241.44 936.71,-222.48 936.71,-205.76"/>
</g>
<!-- flow10&#45;&gt;node8 -->
<g id="edge19" class="edge">
<title>flow10&#45;&gt;node8</title>
<path fill="none" stroke="black" d="M576.93,-252.08C576.93,-252.08 576.93,-215.76 576.93,-215.76"/>
<polygon fill="black" stroke="black" points="580.43,-215.76 576.93,-205.76 573.43,-215.76 580.43,-215.76"/>
</g>
<!-- flow11&#45;&gt;node14 -->
<g id="edge21" class="edge">
<title>flow11&#45;&gt;node14</title>
<path fill="none" stroke="black" d="M549.43,-86.45C549.43,-86.45 549.43,-53.31 549.43,-53.31"/>
<polygon fill="black" stroke="black" points="552.93,-53.31 549.43,-43.31 545.93,-53.31 552.93,-53.31"/>
</g>
<!-- flow12&#45;&gt;node14 -->
<g id="edge23" class="edge">
<title>flow12&#45;&gt;node14</title>
<path fill="none" stroke="black" d="M762.43,-86.7C762.43,-68.15 762.43,-25 762.43,-25 762.43,-25 604.34,-25 604.34,-25"/>
<polygon fill="black" stroke="black" points="604.34,-21.5 594.34,-25 604.34,-28.5 604.34,-21.5"/>
</g>
<!-- flow13&#45;&gt;node9 -->
<g id="edge25" class="edge">
<title>flow13&#45;&gt;node9</title>
<path fill="none" stroke="black" d="M759.43,-252.08C759.43,-252.08 759.43,-215.76 759.43,-215.76"/>
<polygon fill="black" stroke="black" points="762.93,-215.76 759.43,-205.76 755.93,-215.76 762.93,-215.76"/>
</g>
</g>
</svg>
