<?xml version="1.0" encoding="UTF-8" standalone="no"?>
<!DOCTYPE svg PUBLIC "-//W3C//DTD SVG 1.1//EN"
 "http://www.w3.org/Graphics/SVG/1.1/DTD/svg11.dtd">
<!-- Generated by graphviz version 2.44.1 (20200629.0846)
 -->
<!-- Title: gane_sarson Pages: 1 -->
<svg width="1137pt" height="340pt"
 viewBox="0.00 0.00 1136.62 339.80" xmlns="http://www.w3.org/2000/svg" xmlns:xlink="http://www.w3.org/1999/xlink">
<g id="graph0" class="graph" transform="scale(1 1) rotate(0) translate(4 335.8)">
<title>gane_sarson</title>
<polygon fill="white" stroke="transparent" points="-4,4 -4,-335.8 1132.62,-335.8 1132.62,4 -4,4"/>
<!-- node1 -->
<g id="node1" class="node">
<title>node1</title>
<polygon fill="lightgrey" stroke="black" points="44.9,-295.3 44.9,-331.3 215.64,-331.3 215.64,-295.3 44.9,-295.3"/>
<text text-anchor="middle" x="130.27" y="-309.2" font-family="Calibri" font-size="14.00">Customer Service Assistant</text>
</g>
<!-- flow0 -->
<g id="node13" class="node">
<title>flow0</title>
<polygon fill="none" stroke="white" points="177.76,-258.7 82.79,-258.7 82.79,-242.1 177.76,-242.1 177.76,-258.7"/>
<text text-anchor="middle" x="130.27" y="-246.2" font-family="Calibri" font-size="14.00">Customer details</text>
</g>
<!-- node1&#45;&gt;flow0 -->
<g id="edge1" class="edge">
<title>node1&#45;&gt;flow0</title>
<path fill="none" stroke="black" d="M130.27,-295.11C130.27,-283.21 130.27,-268.21 130.27,-258.96"/>
</g>
<!-- node2 -->
<g id="node2" class="node">
<title>node2</title>
<polygon fill="lightsteelblue" stroke="black" points="660.05,-295.3 660.05,-331.3 730.49,-331.3 730.49,-295.3 660.05,-295.3"/>
<text text-anchor="middle" x="695.27" y="-309.2" font-family="Calibri" font-size="14.00">Customer</text>
</g>
<!-- flow4 -->
<g id="node17" class="node">
<title>flow4</title>
<polygon fill="none" stroke="white" points="983.46,-258.7 911.08,-258.7 911.08,-242.1 983.46,-242.1 983.46,-258.7"/>
<text text-anchor="middle" x="947.27" y="-246.2" font-family="Calibri" font-size="14.00">Order details</text>
</g>
<!-- node2&#45;&gt;flow4 -->
<g id="edge9" class="edge">
<title>node2&#45;&gt;flow4</title>
<path fill="none" stroke="black" d="M730.58,-313C799.93,-313 947.27,-313 947.27,-313 947.27,-313 947.27,-275.93 947.27,-258.84"/>
</g>
<!-- flow8 -->
<g id="node19" class="node">
<title>flow8</title>
<polygon fill="none" stroke="white" points="838.74,-258.7 729.8,-258.7 729.8,-242.1 838.74,-242.1 838.74,-258.7"/>
<text text-anchor="middle" x="784.27" y="-246.2" font-family="Calibri" font-size="14.00">Transaction history</text>
</g>
<!-- node2&#45;&gt;flow8 -->
<g id="edge15" class="edge">
<title>node2&#45;&gt;flow8</title>
<path fill="none" stroke="black" d="M705.33,-285.21C705.33,-285.21 705.33,-253 705.33,-253 705.33,-253 716.2,-253 729.88,-253"/>
<polygon fill="black" stroke="black" points="701.83,-285.21 705.33,-295.21 708.83,-285.21 701.83,-285.21"/>
</g>
<!-- flow9 -->
<g id="node20" class="node">
<title>flow9</title>
<polygon fill="none" stroke="white" points="473.81,-258.7 384.73,-258.7 384.73,-242.1 473.81,-242.1 473.81,-258.7"/>
<text text-anchor="middle" x="429.27" y="-246.2" font-family="Calibri" font-size="14.00">Deposit amount</text>
</g>
<!-- node2&#45;&gt;flow9 -->
<g id="edge17" class="edge">
<title>node2&#45;&gt;flow9</title>
<path fill="none" stroke="black" d="M659.95,-313C587.59,-313 429.27,-313 429.27,-313 429.27,-313 429.27,-275.93 429.27,-258.84"/>
</g>
<!-- flow12 -->
<g id="node23" class="node">
<title>flow12</title>
<polygon fill="none" stroke="white" points="658.25,-258.7 556.3,-258.7 556.3,-242.1 658.25,-242.1 658.25,-258.7"/>
<text text-anchor="middle" x="607.27" y="-246.2" font-family="Calibri" font-size="14.00">Withdraw amount</text>
</g>
<!-- node2&#45;&gt;flow12 -->
<g id="edge23" class="edge">
<title>node2&#45;&gt;flow12</title>
<path fill="none" stroke="black" d="M670.34,-285.18C670.34,-285.18 670.34,-247 670.34,-247 670.34,-247 665.35,-247 658.18,-247"/>
<polygon fill="black" stroke="black" points="666.84,-285.18 670.34,-295.18 673.84,-285.18 666.84,-285.18"/>
</g>
<!-- node3 -->
<g id="node3" class="node">
<title>node3</title>
<polygon fill="lightgrey" stroke="black" points="1064.84,-295.3 1064.84,-331.3 1119.71,-331.3 1119.71,-295.3 1064.84,-295.3"/>
<text text-anchor="middle" x="1092.27" y="-309.2" font-family="Calibri" font-size="14.00">Broker</text>
</g>
<!-- flow3 -->
<g id="node16" class="node">
<title>flow3</title>
<polygon fill="none" stroke="white" points="1128.46,-258.7 1056.08,-258.7 1056.08,-242.1 1128.46,-242.1 1128.46,-258.7"/>
<text text-anchor="middle" x="1092.27" y="-246.2" font-family="Calibri" font-size="14.00">Order details</text>
</g>
<!-- node3&#45;&gt;flow3 -->
<g id="edge7" class="edge">
<title>node3&#45;&gt;flow3</title>
<path fill="none" stroke="black" d="M1092.27,-295.11C1092.27,-283.21 1092.27,-268.21 1092.27,-258.96"/>
</g>
<!-- node4 -->
<g id="node4" class="node">
<title>node4</title>
<polygon fill="lightblue" stroke="black" points="917.57,-0.5 917.57,-50.1 1064.97,-50.1 1064.97,-0.5 917.57,-0.5"/>
<text text-anchor="middle" x="991.27" y="-33.5" font-family="Calibri" font-size="14.00">Third Party</text>
<polyline fill="none" stroke="black" points="917.57,-25.3 1064.97,-25.3 "/>
<text text-anchor="middle" x="991.27" y="-8.7" font-family="Calibri" font-size="14.00">Stock Exchange Center</text>
</g>
<!-- node5 -->
<g id="node5" class="node">
<title>node5</title>
<path fill="none" stroke="black" d="M93.65,-139.9C93.65,-139.9 166.9,-139.9 166.9,-139.9 172.9,-139.9 178.9,-145.9 178.9,-151.9 178.9,-151.9 178.9,-193.5 178.9,-193.5 178.9,-199.5 172.9,-205.5 166.9,-205.5 166.9,-205.5 93.65,-205.5 93.65,-205.5 87.65,-205.5 81.65,-199.5 81.65,-193.5 81.65,-193.5 81.65,-151.9 81.65,-151.9 81.65,-145.9 87.65,-139.9 93.65,-139.9"/>
<text text-anchor="middle" x="130.27" y="-188.9" font-family="Calibri" font-size="14.00">1</text>
<polyline fill="none" stroke="black" points="81.65,-180.7 178.9,-180.7 "/>
<text text-anchor="middle" x="130.27" y="-164.1" font-family="Calibri" font-size="14.00">Open Account</text>
</g>
<!-- flow1 -->
<g id="node14" class="node">
<title>flow1</title>
<polygon fill="none" stroke="white" points="95.76,-103.3 0.79,-103.3 0.79,-86.7 95.76,-86.7 95.76,-103.3"/>
<text text-anchor="middle" x="48.27" y="-90.8" font-family="Calibri" font-size="14.00">Customer details</text>
</g>
<!-- node5&#45;&gt;flow1 -->
<g id="edge3" class="edge">
<title>node5&#45;&gt;flow1</title>
<path fill="none" stroke="black" d="M88.58,-139.75C88.58,-126.51 88.58,-112.34 88.58,-103.57"/>
</g>
<!-- flow2 -->
<g id="node15" class="node">
<title>flow2</title>
<polygon fill="none" stroke="white" points="255.25,-103.3 167.3,-103.3 167.3,-86.7 255.25,-86.7 255.25,-103.3"/>
<text text-anchor="middle" x="211.27" y="-90.8" font-family="Calibri" font-size="14.00">Account details</text>
</g>
<!-- node5&#45;&gt;flow2 -->
<g id="edge5" class="edge">
<title>node5&#45;&gt;flow2</title>
<path fill="none" stroke="black" d="M173.22,-139.75C173.22,-126.51 173.22,-112.34 173.22,-103.57"/>
</g>
<!-- node6 -->
<g id="node6" class="node">
<title>node6</title>
<path fill="none" stroke="black" d="M385.75,-139.9C385.75,-139.9 452.79,-139.9 452.79,-139.9 458.79,-139.9 464.79,-145.9 464.79,-151.9 464.79,-151.9 464.79,-193.5 464.79,-193.5 464.79,-199.5 458.79,-205.5 452.79,-205.5 452.79,-205.5 385.75,-205.5 385.75,-205.5 379.75,-205.5 373.75,-199.5 373.75,-193.5 373.75,-193.5 373.75,-151.9 373.75,-151.9 373.75,-145.9 379.75,-139.9 385.75,-139.9"/>
<text text-anchor="middle" x="419.27" y="-188.9" font-family="Calibri" font-size="14.00">2</text>
<polyline fill="none" stroke="black" points="373.75,-180.7 464.79,-180.7 "/>
<text text-anchor="middle" x="419.27" y="-164.1" font-family="Calibri" font-size="14.00">Deposit Cash</text>
</g>
<!-- flow10 -->
<g id="node21" class="node">
<title>flow10</title>
<polygon fill="none" stroke="white" points="467.48,-103.3 327.06,-103.3 327.06,-86.7 467.48,-86.7 467.48,-103.3"/>
<text text-anchor="middle" x="397.27" y="-90.8" font-family="Calibri" font-size="14.00">Updated account balance</text>
</g>
<!-- node6&#45;&gt;flow10 -->
<g id="edge19" class="edge">
<title>node6&#45;&gt;flow10</title>
<path fill="none" stroke="black" d="M419.27,-139.75C419.27,-126.51 419.27,-112.34 419.27,-103.57"/>
</g>
<!-- node7 -->
<g id="node7" class="node">
<title>node7</title>
<path fill="none" stroke="black" d="M567.54,-139.9C567.54,-139.9 647.01,-139.9 647.01,-139.9 653.01,-139.9 659.01,-145.9 659.01,-151.9 659.01,-151.9 659.01,-193.5 659.01,-193.5 659.01,-199.5 653.01,-205.5 647.01,-205.5 647.01,-205.5 567.54,-205.5 567.54,-205.5 561.54,-205.5 555.54,-199.5 555.54,-193.5 555.54,-193.5 555.54,-151.9 555.54,-151.9 555.54,-145.9 561.54,-139.9 567.54,-139.9"/>
<text text-anchor="middle" x="607.27" y="-188.9" font-family="Calibri" font-size="14.00">3</text>
<polyline fill="none" stroke="black" points="555.54,-180.7 659.01,-180.7 "/>
<text text-anchor="middle" x="607.27" y="-164.1" font-family="Calibri" font-size="14.00">Withdraw Cash</text>
</g>
<!-- flow11 -->
<g id="node22" class="node">
<title>flow11</title>
<polygon fill="none" stroke="white" points="680.48,-103.3 540.06,-103.3 540.06,-86.7 680.48,-86.7 680.48,-103.3"/>
<text text-anchor="middle" x="610.27" y="-90.8" font-family="Calibri" font-size="14.00">Updated account balance</text>
</g>
<!-- node7&#45;&gt;flow11 -->
<g id="edge21" class="edge">
<title>node7&#45;&gt;flow11</title>
<path fill="none" stroke="black" d="M607.27,-139.75C607.27,-126.51 607.27,-112.34 607.27,-103.57"/>
</g>
<!-- node9 -->
<g id="node8" class="node">
<title>node9</title>
<path fill="none" stroke="black" d="M949.04,-139.9C949.04,-139.9 1007.5,-139.9 1007.5,-139.9 1013.5,-139.9 1019.5,-145.9 1019.5,-151.9 1019.5,-151.9 1019.5,-193.5 1019.5,-193.5 1019.5,-199.5 1013.5,-205.5 1007.5,-205.5 1007.5,-205.5 949.04,-205.5 949.04,-205.5 943.04,-205.5 937.04,-199.5 937.04,-193.5 937.04,-193.5 937.04,-151.9 937.04,-151.9 937.04,-145.9 943.04,-139.9 949.04,-139.9"/>
<text text-anchor="middle" x="978.27" y="-188.9" font-family="Calibri" font-size="14.00">4.0</text>
<polyline fill="none" stroke="black" points="937.04,-180.7 1019.5,-180.7 "/>
<text text-anchor="middle" x="978.27" y="-164.1" font-family="Calibri" font-size="14.00">Place Order</text>
</g>
<!-- flow5 -->
<g id="node18" class="node">
<title>flow5</title>
<polygon fill="none" stroke="white" points="1031.4,-103.3 925.14,-103.3 925.14,-86.7 1031.4,-86.7 1031.4,-103.3"/>
<text text-anchor="middle" x="978.27" y="-90.8" font-family="Calibri" font-size="14.00">Transaction details</text>
</g>
<!-- node9&#45;&gt;flow5 -->
<g id="edge11" class="edge">
<title>node9&#45;&gt;flow5</title>
<path fill="none" stroke="black" d="M978.27,-139.75C978.27,-126.51 978.27,-112.34 978.27,-103.57"/>
</g>
<!-- node10 -->
<g id="node9" class="node">
<title>node10</title>
<path fill="none" stroke="black" d="M742.6,-139.9C742.6,-139.9 839.95,-139.9 839.95,-139.9 845.95,-139.9 851.95,-145.9 851.95,-151.9 851.95,-151.9 851.95,-193.5 851.95,-193.5 851.95,-199.5 845.95,-205.5 839.95,-205.5 839.95,-205.5 742.6,-205.5 742.6,-205.5 736.6,-205.5 730.6,-199.5 730.6,-193.5 730.6,-193.5 730.6,-151.9 730.6,-151.9 730.6,-145.9 736.6,-139.9 742.6,-139.9"/>
<text text-anchor="middle" x="791.27" y="-188.9" font-family="Calibri" font-size="14.00">4.1</text>
<polyline fill="none" stroke="black" points="730.6,-180.7 851.95,-180.7 "/>
<text text-anchor="middle" x="791.27" y="-164.1" font-family="Calibri" font-size="14.00">Check Transaction</text>
</g>
<!-- node13 -->
<g id="node12" class="node">
<title>node13</title>
<polygon fill="none" stroke="black" points="737.18,-7.3 737.18,-43.3 845.37,-43.3 845.37,-7.3 737.18,-7.3"/>
<text text-anchor="middle" x="750.23" y="-21.2" font-family="Calibri" font-size="14.00">D</text>
<polyline fill="none" stroke="black" points="763.28,-7.5 763.28,-43.3 "/>
<text text-anchor="middle" x="804.33" y="-21.7" font-family="Calibri" font-size="14.00">Transaction</text>
</g>
<!-- node10&#45;&gt;node13 -->
<g id="edge14" class="edge">
<title>node10&#45;&gt;node13</title>
<path fill="none" stroke="black" d="M773.24,-129.62C773.24,-129.62 773.24,-43.47 773.24,-43.47"/>
<polygon fill="black" stroke="black" points="769.74,-129.62 773.24,-139.62 776.74,-129.62 769.74,-129.62"/>
</g>
<!-- node11 -->
<g id="node10" class="node">
<title>node11</title>
<polygon fill="none" stroke="black" points="0,-7.3 0,-43.3 96.54,-43.3 96.54,-7.3 0,-7.3"/>
<text text-anchor="middle" x="13.05" y="-21.2" font-family="Calibri" font-size="14.00">D</text>
<polyline fill="none" stroke="black" points="26.11,-7.5 26.11,-43.3 "/>
<text text-anchor="middle" x="61.33" y="-21.7" font-family="Calibri" font-size="14.00">Customer</text>
</g>
<!-- node12 -->
<g id="node11" class="node">
<title>node12</title>
<polygon fill="none" stroke="black" points="352.51,-7.3 352.51,-43.3 442.04,-43.3 442.04,-7.3 352.51,-7.3"/>
<text text-anchor="middle" x="365.56" y="-21.2" font-family="Calibri" font-size="14.00">D</text>
<polyline fill="none" stroke="black" points="378.61,-7.5 378.61,-43.3 "/>
<text text-anchor="middle" x="410.33" y="-21.7" font-family="Calibri" font-size="14.00">Account</text>
</g>
<!-- flow0&#45;&gt;node5 -->
<g id="edge2" class="edge">
<title>flow0&#45;&gt;node5</title>
<path fill="none" stroke="black" d="M130.27,-242.08C130.27,-242.08 130.27,-215.54 130.27,-215.54"/>
<polygon fill="black" stroke="black" points="133.77,-215.54 130.27,-205.54 126.77,-215.54 133.77,-215.54"/>
</g>
<!-- flow1&#45;&gt;node11 -->
<g id="edge4" class="edge">
<title>flow1&#45;&gt;node11</title>
<path fill="none" stroke="black" d="M48.27,-86.45C48.27,-86.45 48.27,-53.31 48.27,-53.31"/>
<polygon fill="black" stroke="black" points="51.77,-53.31 48.27,-43.31 44.77,-53.31 51.77,-53.31"/>
</g>
<!-- flow2&#45;&gt;node12 -->
<g id="edge6" class="edge">
<title>flow2&#45;&gt;node12</title>
<path fill="none" stroke="black" d="M211.27,-86.7C211.27,-68.15 211.27,-25 211.27,-25 211.27,-25 342.25,-25 342.25,-25"/>
<polygon fill="black" stroke="black" points="342.25,-28.5 352.25,-25 342.25,-21.5 342.25,-28.5"/>
</g>
<!-- flow3&#45;&gt;node9 -->
<g id="edge8" class="edge">
<title>flow3&#45;&gt;node9</title>
<path fill="none" stroke="black" d="M1055.9,-250C1030.66,-250 1001.56,-250 1001.56,-250 1001.56,-250 1001.56,-215.93 1001.56,-215.93"/>
<polygon fill="black" stroke="black" points="1005.06,-215.93 1001.56,-205.93 998.06,-215.93 1005.06,-215.93"/>
</g>
<!-- flow4&#45;&gt;node9 -->
<g id="edge10" class="edge">
<title>flow4&#45;&gt;node9</title>
<path fill="none" stroke="black" d="M960.33,-242.08C960.33,-242.08 960.33,-215.54 960.33,-215.54"/>
<polygon fill="black" stroke="black" points="963.83,-215.54 960.33,-205.54 956.83,-215.54 963.83,-215.54"/>
</g>
<!-- flow5&#45;&gt;node4 -->
<g id="edge12" class="edge">
<title>flow5&#45;&gt;node4</title>
<path fill="none" stroke="black" d="M978.27,-86.45C978.27,-86.45 978.27,-60.12 978.27,-60.12"/>
<polygon fill="black" stroke="black" points="981.77,-60.12 978.27,-50.12 974.77,-60.12 981.77,-60.12"/>
</g>
<!-- flow5&#45;&gt;node13 -->
<g id="edge13" class="edge">
<title>flow5&#45;&gt;node13</title>
<path fill="none" stroke="black" d="M924.81,-95C875.31,-95 809.3,-95 809.3,-95 809.3,-95 809.3,-53.61 809.3,-53.61"/>
<polygon fill="black" stroke="black" points="812.8,-53.61 809.3,-43.61 805.8,-53.61 812.8,-53.61"/>
</g>
<!-- flow8&#45;&gt;node10 -->
<g id="edge16" class="edge">
<title>flow8&#45;&gt;node10</title>
<path fill="none" stroke="black" d="M784.55,-242.08C784.55,-233.32 784.55,-218.94 784.55,-205.54"/>
</g>
<!-- flow9&#45;&gt;node6 -->
<g id="edge18" class="edge">
<title>flow9&#45;&gt;node6</title>
<path fill="none" stroke="black" d="M424.77,-242.08C424.77,-242.08 424.77,-215.54 424.77,-215.54"/>
<polygon fill="black" stroke="black" points="428.27,-215.54 424.77,-205.54 421.27,-215.54 428.27,-215.54"/>
</g>
<!-- flow10&#45;&gt;node12 -->
<g id="edge20" class="edge">
<title>flow10&#45;&gt;node12</title>
<path fill="none" stroke="black" d="M397.27,-86.45C397.27,-86.45 397.27,-53.31 397.27,-53.31"/>
<polygon fill="black" stroke="black" points="400.77,-53.31 397.27,-43.31 393.77,-53.31 400.77,-53.31"/>
</g>
<!-- flow11&#45;&gt;node12 -->
<g id="edge22" class="edge">
<title>flow11&#45;&gt;node12</title>
<path fill="none" stroke="black" d="M610.27,-86.7C610.27,-68.15 610.27,-25 610.27,-25 610.27,-25 452.18,-25 452.18,-25"/>
<polygon fill="black" stroke="black" points="452.18,-21.5 442.18,-25 452.18,-28.5 452.18,-21.5"/>
</g>
<!-- flow12&#45;&gt;node7 -->
<g id="edge24" class="edge">
<title>flow12&#45;&gt;node7</title>
<path fill="none" stroke="black" d="M607.27,-242.08C607.27,-242.08 607.27,-215.54 607.27,-215.54"/>
<polygon fill="black" stroke="black" points="610.77,-215.54 607.27,-205.54 603.77,-215.54 610.77,-215.54"/>
</g>
</g>
</svg>
